<mxfile host="65bd71144e">
    <diagram id="SJTWpJdg0pLJ-CFRlaKq" name="Page-1">
        <mxGraphModel dx="1624" dy="974" grid="1" gridSize="10" guides="1" tooltips="1" connect="1" arrows="1" fold="1" page="1" pageScale="1" pageWidth="4681" pageHeight="3300" math="0" shadow="0">
            <root>
                <mxCell id="0"/>
                <mxCell id="1" parent="0"/>
                <mxCell id="74" value="OWNER" style="rounded=0;whiteSpace=wrap;html=1;align=center;fontSize=23;" vertex="1" parent="1">
                    <mxGeometry x="400" y="850" width="120" height="60" as="geometry"/>
                </mxCell>
                <mxCell id="86" value="NAME" style="ellipse;whiteSpace=wrap;html=1;fontSize=23;" vertex="1" parent="1">
                    <mxGeometry x="150" y="840" width="120" height="80" as="geometry"/>
                </mxCell>
            </root>
        </mxGraphModel>
    </diagram>
</mxfile>